<svg width="30" height="30" viewBox="0 0 30 30" fill="none" xmlns="http://www.w3.org/2000/svg">
<path d="M9.51922 24.9999C8.95993 24.9999 8.48356 24.8032 8.09013 24.4098C7.69671 24.0163 7.5 23.54 7.5 22.9807V7.49989H6.25V6.24989H11.25V5.28833H18.75V6.24989H23.75V7.49989H22.5V22.9807C22.5 23.556 22.3073 24.0364 21.9219 24.4218C21.5365 24.8072 21.0561 24.9999 20.4808 24.9999H9.51922ZM21.25 7.49989H8.75V22.9807C8.75 23.205 8.82211 23.3893 8.96634 23.5336C9.11057 23.6778 9.29486 23.7499 9.51922 23.7499H20.4808C20.6731 23.7499 20.8494 23.6698 21.0096 23.5095C21.1699 23.3492 21.25 23.173 21.25 22.9807V7.49989ZM12.2596 21.2499H13.5096V9.99989H12.2596V21.2499ZM16.4904 21.2499H17.7404V9.99989H16.4904V21.2499Z" fill="#C73B65"/>
</svg>
