<svg width="30" height="30" viewBox="0 0 30 30" fill="none" xmlns="http://www.w3.org/2000/svg">
<path d="M14.976 25V23.75H22.9808C23.1731 23.75 23.3494 23.6699 23.5096 23.5096C23.6699 23.3494 23.75 23.1731 23.75 22.9808V7.01922C23.75 6.82693 23.6699 6.65065 23.5096 6.49038C23.3494 6.33013 23.1731 6.25 22.9808 6.25H14.976V5H22.9808C23.5561 5 24.0365 5.19271 24.4219 5.57812C24.8073 5.96354 25 6.44391 25 7.01922V22.9808C25 23.5561 24.8073 24.0365 24.4219 24.4219C24.0365 24.8073 23.5561 25 22.9808 25H14.976ZM14.0865 19.4231L13.2091 18.524L16.1082 15.625H5V14.375H16.1082L13.2091 11.476L14.0865 10.5769L18.5096 15L14.0865 19.4231Z" fill="#C73B65"/>
</svg>
