<svg width="30" height="30" viewBox="0 0 30 30" fill="none" xmlns="http://www.w3.org/2000/svg">
<path d="M14.9879 24.8749V23.25H22.8653C22.9615 23.25 23.0496 23.2099 23.1298 23.1298C23.2099 23.0496 23.25 22.9615 23.25 22.8653V7.13463C23.25 7.03846 23.2099 6.9503 23.1298 6.87016C23.0496 6.79003 22.9615 6.74997 22.8653 6.74997H14.9879V5.125H22.8653C23.428 5.125 23.9036 5.31927 24.2921 5.70781C24.6807 6.09635 24.8749 6.57196 24.8749 7.13463V22.8653C24.8749 23.428 24.6807 23.9036 24.2921 24.2921C23.9036 24.6807 23.428 24.8749 22.8653 24.8749H14.9879ZM13.5433 19.3364L12.3702 18.1995L14.7572 15.8124H5.125V14.1875H14.7572L12.3702 11.8005L13.5433 10.6635L17.8798 15L13.5433 19.3364Z" fill="#C73B65"/>
</svg>
