<svg width="30" height="30" viewBox="0 0 30 30" fill="none" xmlns="http://www.w3.org/2000/svg">
<path d="M7.01922 25C6.44391 25 5.96354 24.8073 5.57812 24.4219C5.19271 24.0365 5 23.5561 5 22.9808V7.01922C5 6.44391 5.19271 5.96354 5.57812 5.57812C5.96354 5.19271 6.44391 5 7.01922 5H15.024V6.25H7.01922C6.82693 6.25 6.65065 6.33013 6.49038 6.49038C6.33013 6.65065 6.25 6.82693 6.25 7.01922V22.9808C6.25 23.1731 6.33013 23.3494 6.49038 23.5096C6.65065 23.6699 6.82693 23.75 7.01922 23.75H15.024V25H7.01922ZM20.5769 19.4231L19.6995 18.524L22.5986 15.625H11.4904V14.375H22.5986L19.6995 11.476L20.5769 10.5769L25 15L20.5769 19.4231Z" fill="#C73B65"/>
</svg>
