<svg width="30" height="30" viewBox="0 0 30 30" fill="none" xmlns="http://www.w3.org/2000/svg">
<path d="M15.0962 23.75C12.6535 23.75 10.5845 22.9027 8.88916 21.2082C7.19385 19.5136 6.34619 17.4455 6.34619 15.0038C6.34619 12.5622 7.19385 10.4928 8.88916 8.79566C10.5845 7.09855 12.6535 6.25 15.0962 6.25C16.5818 6.25 17.9728 6.60296 19.2693 7.30887C20.5657 8.01481 21.6106 8.99999 22.4039 10.2644V6.25H23.6539V12.7885H17.1154V11.5385H21.7404C21.0898 10.2917 20.1743 9.3069 18.994 8.58413C17.8137 7.86138 16.5145 7.5 15.0962 7.5C13.0129 7.5 11.242 8.22917 9.78369 9.6875C8.32536 11.1458 7.59619 12.9167 7.59619 15C7.59619 17.0833 8.32536 18.8542 9.78369 20.3125C11.242 21.7708 13.0129 22.5 15.0962 22.5C16.7004 22.5 18.1483 22.0417 19.4399 21.125C20.7316 20.2083 21.6379 19 22.1587 17.5H23.4856C22.9343 19.3718 21.8871 20.8814 20.3438 22.0288C18.8005 23.1763 17.0513 23.75 15.0962 23.75Z" fill="#C73B65"/>
</svg>
