<svg width="30" height="30" viewBox="0 0 30 30" fill="none" xmlns="http://www.w3.org/2000/svg">
<path d="M7.62259 21.3341C8.74759 20.5665 9.92067 19.996 11.1418 19.6226C12.363 19.2492 13.649 19.0625 15 19.0625C16.3509 19.0625 17.637 19.2492 18.8581 19.6226C20.0793 19.996 21.2523 20.5665 22.3773 21.3341C23.1546 20.48 23.7443 19.512 24.1466 18.4303C24.5488 17.3485 24.75 16.2051 24.75 15C24.75 12.2984 23.7997 9.99801 21.899 8.09878C19.9984 6.19957 17.6963 5.24997 14.9928 5.24997C12.2892 5.24997 9.98955 6.19957 8.09372 8.09878C6.19789 9.99801 5.24997 12.2984 5.24997 15C5.24997 16.2051 5.45109 17.3485 5.85334 18.4303C6.25559 19.512 6.84534 20.48 7.62259 21.3341ZM15.0003 16.9374C13.8382 16.9374 12.8497 16.5301 12.0348 15.7155C11.2199 14.9008 10.8125 13.9124 10.8125 12.7503C10.8125 11.5882 11.2198 10.5997 12.0345 9.78485C12.8491 8.96995 13.8375 8.5625 14.9996 8.5625C16.1617 8.5625 17.1502 8.96982 17.9651 9.78447C18.78 10.5991 19.1874 11.5875 19.1874 12.7496C19.1874 13.9117 18.7801 14.9002 17.9655 15.7151C17.1508 16.53 16.1624 16.9374 15.0003 16.9374ZM15.0086 26.3749C13.4371 26.3749 11.9603 26.0805 10.5781 25.4915C9.19592 24.9026 7.98598 24.0893 6.94831 23.0516C5.91067 22.014 5.09737 20.8045 4.50844 19.4231C3.91948 18.0418 3.625 16.5626 3.625 14.9857C3.625 13.4087 3.91948 11.9343 4.50844 10.5625C5.09737 9.19071 5.91067 7.98598 6.94831 6.94831C7.98598 5.91067 9.19548 5.09738 10.5768 4.50844C11.9581 3.91948 13.4373 3.625 15.0143 3.625C16.5913 3.625 18.0657 3.91948 19.4374 4.50844C20.8092 5.09738 22.014 5.91067 23.0516 6.94831C24.0893 7.98598 24.9026 9.19304 25.4915 10.5695C26.0805 11.946 26.3749 13.4199 26.3749 14.9913C26.3749 16.5628 26.0805 18.0396 25.4915 19.4218C24.9026 20.804 24.0893 22.014 23.0516 23.0516C22.014 24.0893 20.8069 24.9026 19.4304 25.4915C18.054 26.0805 16.58 26.3749 15.0086 26.3749ZM15 24.75C16.1073 24.75 17.1951 24.5581 18.2632 24.1743C19.3313 23.7904 20.3029 23.2412 21.1779 22.5264C20.282 21.9399 19.3121 21.4867 18.268 21.167C17.2239 20.8473 16.1346 20.6874 15 20.6874C13.8653 20.6874 12.7688 20.8401 11.7103 21.1454C10.6518 21.4507 9.68904 21.911 8.82206 22.5264C9.69706 23.2412 10.6686 23.7904 11.7367 24.1743C12.8049 24.5581 13.8926 24.75 15 24.75ZM15 15.3125C15.7051 15.3125 16.3085 15.0617 16.8101 14.5601C17.3117 14.0585 17.5625 13.4551 17.5625 12.75C17.5625 12.0448 17.3117 11.4415 16.8101 10.9398C16.3085 10.4382 15.7051 10.1874 15 10.1874C14.2948 10.1874 13.6915 10.4382 13.1898 10.9398C12.6882 11.4415 12.4374 12.0448 12.4374 12.75C12.4374 13.4551 12.6882 14.0585 13.1898 14.5601C13.6915 15.0617 14.2948 15.3125 15 15.3125Z" fill="#C73B65"/>
</svg>
