<svg width="30" height="30" viewBox="0 0 30 30" fill="none" xmlns="http://www.w3.org/2000/svg">
<path d="M7.74519 21.8558C8.80769 21.0913 9.93509 20.4868 11.1274 20.0421C12.3197 19.5974 13.6106 19.375 15 19.375C16.3894 19.375 17.6803 19.5974 18.8726 20.0421C20.0649 20.4868 21.1923 21.0913 22.2548 21.8558C23.0801 21.0016 23.744 19.9928 24.2464 18.8293C24.7488 17.6659 25 16.3894 25 15C25 12.2292 24.026 9.86979 22.0781 7.92188C20.1302 5.97396 17.7708 5 15 5C12.2292 5 9.86979 5.97396 7.92188 7.92188C5.97396 9.86979 5 12.2292 5 15C5 16.3894 5.2512 17.6659 5.75359 18.8293C6.25601 19.9928 6.91987 21.0016 7.74519 21.8558ZM15.0007 15.625C13.9473 15.625 13.0589 15.2635 12.3353 14.5404C11.6118 13.8173 11.25 12.9291 11.25 11.8757C11.25 10.8223 11.6115 9.93389 12.3346 9.21034C13.0577 8.48678 13.9459 8.125 14.9993 8.125C16.0527 8.125 16.9411 8.48654 17.6647 9.20963C18.3882 9.93269 18.75 10.8209 18.75 11.8743C18.75 12.9277 18.3885 13.8161 17.6654 14.5397C16.9423 15.2632 16.0541 15.625 15.0007 15.625ZM15 26.25C13.4311 26.25 11.9623 25.9579 10.5938 25.3738C9.22517 24.7897 8.03446 23.9912 7.02163 22.9784C6.00881 21.9655 5.21033 20.7748 4.62619 19.4062C4.04206 18.0377 3.75 16.5689 3.75 15C3.75 13.4311 4.04206 11.9623 4.62619 10.5938C5.21033 9.22517 6.00881 8.03446 7.02163 7.02163C8.03446 6.00881 9.22517 5.21033 10.5938 4.62619C11.9623 4.04206 13.4311 3.75 15 3.75C16.5689 3.75 18.0377 4.04206 19.4062 4.62619C20.7748 5.21033 21.9655 6.00881 22.9784 7.02163C23.9912 8.03446 24.7897 9.22517 25.3738 10.5938C25.9579 11.9623 26.25 13.4311 26.25 15C26.25 16.5689 25.9579 18.0377 25.3738 19.4062C24.7897 20.7748 23.9912 21.9655 22.9784 22.9784C21.9655 23.9912 20.7748 24.7897 19.4062 25.3738C18.0377 25.9579 16.5689 26.25 15 26.25ZM15 25C16.1523 25 17.2861 24.7985 18.4014 24.3954C19.5168 23.9924 20.4808 23.4407 21.2933 22.7404C20.4808 22.0881 19.5409 21.5725 18.4736 21.1935C17.4062 20.8145 16.2484 20.625 15 20.625C13.7516 20.625 12.5898 20.8105 11.5144 21.1815C10.4391 21.5525 9.5032 22.0721 8.70672 22.7404C9.51922 23.4407 10.4832 23.9924 11.5986 24.3954C12.7139 24.7985 13.8477 25 15 25ZM15 14.375C15.7019 14.375 16.2941 14.1338 16.7764 13.6514C17.2588 13.1691 17.5 12.5769 17.5 11.875C17.5 11.1731 17.2588 10.5809 16.7764 10.0986C16.2941 9.61619 15.7019 9.375 15 9.375C14.2981 9.375 13.7059 9.61619 13.2236 10.0986C12.7412 10.5809 12.5 11.1731 12.5 11.875C12.5 12.5769 12.7412 13.1691 13.2236 13.6514C13.7059 14.1338 14.2981 14.375 15 14.375Z" fill="#C73B65"/>
</svg>
